<svg xmlns="http://www.w3.org/2000/svg" viewBox="0 0 200 200">
  <!-- Background -->
  <rect width="200" height="200" rx="44" fill="#0E0C0A"/>

  <!-- Petals: 0, 60, 120, 180, 240, 300 -->
  <path d="M100,100 C115,98 108,60 108,35 C108,15 104,8 100,5 C96,8 92,15 92,35 C92,60 85,98 100,100 Z" fill="#C8923C" fill-opacity="0.92"/>
  <path transform="rotate(60,100,100)" d="M100,100 C115,98 108,60 108,35 C108,15 104,8 100,5 C96,8 92,15 92,35 C92,60 85,98 100,100 Z" fill="#C8923C" fill-opacity="0.92"/>
  <path transform="rotate(120,100,100)" d="M100,100 C115,98 108,60 108,35 C108,15 104,8 100,5 C96,8 92,15 92,35 C92,60 85,98 100,100 Z" fill="#C8923C" fill-opacity="0.92"/>
  <path transform="rotate(180,100,100)" d="M100,100 C115,98 108,60 108,35 C108,15 104,8 100,5 C96,8 92,15 92,35 C92,60 85,98 100,100 Z" fill="#C8923C" fill-opacity="0.92"/>
  <path transform="rotate(240,100,100)" d="M100,100 C115,98 108,60 108,35 C108,15 104,8 100,5 C96,8 92,15 92,35 C92,60 85,98 100,100 Z" fill="#C8923C" fill-opacity="0.92"/>
  <path transform="rotate(300,100,100)" d="M100,100 C115,98 108,60 108,35 C108,15 104,8 100,5 C96,8 92,15 92,35 C92,60 85,98 100,100 Z" fill="#C8923C" fill-opacity="0.92"/>

  <!-- Center shadow -->
  <circle cx="100" cy="100" r="15" fill="rgba(0,0,0,0.3)"/>

  <!-- Stamens: 30, 90, 150, 210, 270, 330 -->
  <path d="M100,100 Q102,85 100,68 L103,64 L100,58 L97,64 L100,68" fill="#F5B041" fill-opacity="0.9"/>
  <path transform="rotate(60,100,100)" d="M100,100 Q102,85 100,68 L103,64 L100,58 L97,64 L100,68" fill="#F5B041" fill-opacity="0.9"/>
  <path transform="rotate(120,100,100)" d="M100,100 Q102,85 100,68 L103,64 L100,58 L97,64 L100,68" fill="#F5B041" fill-opacity="0.9"/>
  <path transform="rotate(180,100,100)" d="M100,100 Q102,85 100,68 L103,64 L100,58 L97,64 L100,68" fill="#F5B041" fill-opacity="0.9"/>
  <path transform="rotate(240,100,100)" d="M100,100 Q102,85 100,68 L103,64 L100,58 L97,64 L100,68" fill="#F5B041" fill-opacity="0.9"/>
  <path transform="rotate(300,100,100)" d="M100,100 Q102,85 100,68 L103,64 L100,58 L97,64 L100,68" fill="#F5B041" fill-opacity="0.9"/>

  <!-- Center dot -->
  <circle cx="100" cy="100" r="4.2" fill="rgba(0,0,0,0.65)"/>
  <circle cx="100" cy="100" r="2.5" fill="#0E0C0A"/>
</svg>
